<svg width="49" height="49" viewBox="0 0 49 49" fill="none" xmlns="http://www.w3.org/2000/svg">
<path fill-rule="evenodd" clip-rule="evenodd" d="M12.2497 8.16675H36.7497C38.9156 8.16675 40.9928 9.02716 42.5244 10.5587C44.0559 12.0903 44.9163 14.1675 44.9163 16.3334V36.7501C44.9163 38.916 44.0559 40.9932 42.5244 42.5248C40.9928 44.0563 38.9156 44.9167 36.7497 44.9167H12.2497C10.0837 44.9167 8.00652 44.0563 6.47497 42.5248C4.94342 40.9932 4.08301 38.916 4.08301 36.7501V16.3334C4.08301 14.1675 4.94342 12.0903 6.47497 10.5587C8.00652 9.02716 10.0837 8.16675 12.2497 8.16675ZM12.2497 12.2501C11.1667 12.2501 10.1281 12.6803 9.36232 13.4461C8.59655 14.2118 8.16634 15.2504 8.16634 16.3334V36.7501C8.16634 37.833 8.59655 38.8717 9.36232 39.6374C10.1281 40.4032 11.1667 40.8334 12.2497 40.8334H36.7497C37.8326 40.8334 38.8713 40.4032 39.637 39.6374C40.4028 38.8717 40.833 37.833 40.833 36.7501V16.3334C40.833 15.2504 40.4028 14.2118 39.637 13.4461C38.8713 12.6803 37.8326 12.2501 36.7497 12.2501H12.2497Z" fill="white"/>
<path fill-rule="evenodd" clip-rule="evenodd" d="M6.125 20.4167C6.125 19.8752 6.3401 19.3559 6.72299 18.973C7.10588 18.5901 7.62518 18.375 8.16667 18.375H40.8333C41.3748 18.375 41.8941 18.5901 42.277 18.973C42.6599 19.3559 42.875 19.8752 42.875 20.4167C42.875 20.9582 42.6599 21.4775 42.277 21.8604C41.8941 22.2433 41.3748 22.4584 40.8333 22.4584H8.16667C7.62518 22.4584 7.10588 22.2433 6.72299 21.8604C6.3401 21.4775 6.125 20.9582 6.125 20.4167ZM16.3333 4.08337C16.8748 4.08337 17.3941 4.29848 17.777 4.68136C18.1599 5.06425 18.375 5.58356 18.375 6.12504V14.2917C18.375 14.8332 18.1599 15.3525 17.777 15.7354C17.3941 16.1183 16.8748 16.3334 16.3333 16.3334C15.7919 16.3334 15.2725 16.1183 14.8897 15.7354C14.5068 15.3525 14.2917 14.8332 14.2917 14.2917V6.12504C14.2917 5.58356 14.5068 5.06425 14.8897 4.68136C15.2725 4.29848 15.7919 4.08337 16.3333 4.08337ZM32.6667 4.08337C33.2082 4.08337 33.7275 4.29848 34.1103 4.68136C34.4932 5.06425 34.7083 5.58356 34.7083 6.12504V14.2917C34.7083 14.8332 34.4932 15.3525 34.1103 15.7354C33.7275 16.1183 33.2082 16.3334 32.6667 16.3334C32.1252 16.3334 31.6059 16.1183 31.223 15.7354C30.8401 15.3525 30.625 14.8332 30.625 14.2917V6.12504C30.625 5.58356 30.8401 5.06425 31.223 4.68136C31.6059 4.29848 32.1252 4.08337 32.6667 4.08337Z" fill="white"/>
<path d="M16.3333 26.5417C16.3333 27.0832 16.1182 27.6025 15.7353 27.9853C15.3525 28.3682 14.8332 28.5833 14.2917 28.5833C13.7502 28.5833 13.2309 28.3682 12.848 27.9853C12.4651 27.6025 12.25 27.0832 12.25 26.5417C12.25 26.0002 12.4651 25.4809 12.848 25.098C13.2309 24.7151 13.7502 24.5 14.2917 24.5C14.8332 24.5 15.3525 24.7151 15.7353 25.098C16.1182 25.4809 16.3333 26.0002 16.3333 26.5417ZM16.3333 34.7083C16.3333 35.2498 16.1182 35.7691 15.7353 36.152C15.3525 36.5349 14.8332 36.75 14.2917 36.75C13.7502 36.75 13.2309 36.5349 12.848 36.152C12.4651 35.7691 12.25 35.2498 12.25 34.7083C12.25 34.1669 12.4651 33.6475 12.848 33.2647C13.2309 32.8818 13.7502 32.6667 14.2917 32.6667C14.8332 32.6667 15.3525 32.8818 15.7353 33.2647C16.1182 33.6475 16.3333 34.1669 16.3333 34.7083ZM26.5417 26.5417C26.5417 27.0832 26.3266 27.6025 25.9437 27.9853C25.5608 28.3682 25.0415 28.5833 24.5 28.5833C23.9585 28.5833 23.4392 28.3682 23.0563 27.9853C22.6734 27.6025 22.4583 27.0832 22.4583 26.5417C22.4583 26.0002 22.6734 25.4809 23.0563 25.098C23.4392 24.7151 23.9585 24.5 24.5 24.5C25.0415 24.5 25.5608 24.7151 25.9437 25.098C26.3266 25.4809 26.5417 26.0002 26.5417 26.5417ZM26.5417 34.7083C26.5417 35.2498 26.3266 35.7691 25.9437 36.152C25.5608 36.5349 25.0415 36.75 24.5 36.75C23.9585 36.75 23.4392 36.5349 23.0563 36.152C22.6734 35.7691 22.4583 35.2498 22.4583 34.7083C22.4583 34.1669 22.6734 33.6475 23.0563 33.2647C23.4392 32.8818 23.9585 32.6667 24.5 32.6667C25.0415 32.6667 25.5608 32.8818 25.9437 33.2647C26.3266 33.6475 26.5417 34.1669 26.5417 34.7083ZM36.75 26.5417C36.75 27.0832 36.5349 27.6025 36.152 27.9853C35.7691 28.3682 35.2498 28.5833 34.7083 28.5833C34.1669 28.5833 33.6475 28.3682 33.2647 27.9853C32.8818 27.6025 32.6667 27.0832 32.6667 26.5417C32.6667 26.0002 32.8818 25.4809 33.2647 25.098C33.6475 24.7151 34.1669 24.5 34.7083 24.5C35.2498 24.5 35.7691 24.7151 36.152 25.098C36.5349 25.4809 36.75 26.0002 36.75 26.5417ZM36.75 34.7083C36.75 35.2498 36.5349 35.7691 36.152 36.152C35.7691 36.5349 35.2498 36.75 34.7083 36.75C34.1669 36.75 33.6475 36.5349 33.2647 36.152C32.8818 35.7691 32.6667 35.2498 32.6667 34.7083C32.6667 34.1669 32.8818 33.6475 33.2647 33.2647C33.6475 32.8818 34.1669 32.6667 34.7083 32.6667C35.2498 32.6667 35.7691 32.8818 36.152 33.2647C36.5349 33.6475 36.75 34.1669 36.75 34.7083Z" fill="white"/>
</svg>
