<svg width="49" height="49" viewBox="0 0 49 49" fill="none" xmlns="http://www.w3.org/2000/svg">
<path fill-rule="evenodd" clip-rule="evenodd" d="M12.1667 7H36.6667C38.8326 7 40.9098 7.86041 42.4414 9.39196C43.9729 10.9235 44.8333 13.0007 44.8333 15.1667V35.5833C44.8333 37.7493 43.9729 39.8265 42.4414 41.358C40.9098 42.8896 38.8326 43.75 36.6667 43.75H12.1667C10.0007 43.75 7.92351 42.8896 6.39196 41.358C4.86041 39.8265 4 37.7493 4 35.5833V15.1667C4 13.0007 4.86041 10.9235 6.39196 9.39196C7.92351 7.86041 10.0007 7 12.1667 7ZM12.1667 11.0833C11.0837 11.0833 10.0451 11.5135 9.27931 12.2793C8.51354 13.0451 8.08333 14.0837 8.08333 15.1667V35.5833C8.08333 36.6663 8.51354 37.7049 9.27931 38.4707C10.0451 39.2365 11.0837 39.6667 12.1667 39.6667H36.6667C37.7496 39.6667 38.7882 39.2365 39.554 38.4707C40.3198 37.7049 40.75 36.6663 40.75 35.5833V15.1667C40.75 14.0837 40.3198 13.0451 39.554 12.2793C38.7882 11.5135 37.7496 11.0833 36.6667 11.0833H12.1667Z" fill="#D98888"/>
<path fill-rule="evenodd" clip-rule="evenodd" d="M6.125 20.4167C6.125 19.8752 6.3401 19.3559 6.72299 18.973C7.10588 18.5901 7.62518 18.375 8.16667 18.375H40.8333C41.3748 18.375 41.8941 18.5901 42.277 18.973C42.6599 19.3559 42.875 19.8752 42.875 20.4167C42.875 20.9582 42.6599 21.4775 42.277 21.8604C41.8941 22.2433 41.3748 22.4584 40.8333 22.4584H8.16667C7.62518 22.4584 7.10588 22.2433 6.72299 21.8604C6.3401 21.4775 6.125 20.9582 6.125 20.4167ZM16.3333 4.08337C16.8748 4.08337 17.3941 4.29848 17.777 4.68136C18.1599 5.06425 18.375 5.58356 18.375 6.12504V14.2917C18.375 14.8332 18.1599 15.3525 17.777 15.7354C17.3941 16.1183 16.8748 16.3334 16.3333 16.3334C15.7919 16.3334 15.2725 16.1183 14.8897 15.7354C14.5068 15.3525 14.2917 14.8332 14.2917 14.2917V6.12504C14.2917 5.58356 14.5068 5.06425 14.8897 4.68136C15.2725 4.29848 15.7919 4.08337 16.3333 4.08337ZM32.6667 4.08337C33.2082 4.08337 33.7275 4.29848 34.1103 4.68136C34.4932 5.06425 34.7083 5.58356 34.7083 6.12504V14.2917C34.7083 14.8332 34.4932 15.3525 34.1103 15.7354C33.7275 16.1183 33.2082 16.3334 32.6667 16.3334C32.1252 16.3334 31.6059 16.1183 31.223 15.7354C30.8401 15.3525 30.625 14.8332 30.625 14.2917V6.12504C30.625 5.58356 30.8401 5.06425 31.223 4.68136C31.6059 4.29848 32.1252 4.08337 32.6667 4.08337Z" fill="#D98888"/>
<path d="M16.3333 26.5417C16.3333 27.0832 16.1182 27.6025 15.7353 27.9853C15.3525 28.3682 14.8332 28.5833 14.2917 28.5833C13.7502 28.5833 13.2309 28.3682 12.848 27.9853C12.4651 27.6025 12.25 27.0832 12.25 26.5417C12.25 26.0002 12.4651 25.4809 12.848 25.098C13.2309 24.7151 13.7502 24.5 14.2917 24.5C14.8332 24.5 15.3525 24.7151 15.7353 25.098C16.1182 25.4809 16.3333 26.0002 16.3333 26.5417ZM16.3333 34.7083C16.3333 35.2498 16.1182 35.7691 15.7353 36.152C15.3525 36.5349 14.8332 36.75 14.2917 36.75C13.7502 36.75 13.2309 36.5349 12.848 36.152C12.4651 35.7691 12.25 35.2498 12.25 34.7083C12.25 34.1669 12.4651 33.6475 12.848 33.2647C13.2309 32.8818 13.7502 32.6667 14.2917 32.6667C14.8332 32.6667 15.3525 32.8818 15.7353 33.2647C16.1182 33.6475 16.3333 34.1669 16.3333 34.7083ZM26.5417 26.5417C26.5417 27.0832 26.3266 27.6025 25.9437 27.9853C25.5608 28.3682 25.0415 28.5833 24.5 28.5833C23.9585 28.5833 23.4392 28.3682 23.0563 27.9853C22.6734 27.6025 22.4583 27.0832 22.4583 26.5417C22.4583 26.0002 22.6734 25.4809 23.0563 25.098C23.4392 24.7151 23.9585 24.5 24.5 24.5C25.0415 24.5 25.5608 24.7151 25.9437 25.098C26.3266 25.4809 26.5417 26.0002 26.5417 26.5417ZM26.5417 34.7083C26.5417 35.2498 26.3266 35.7691 25.9437 36.152C25.5608 36.5349 25.0415 36.75 24.5 36.75C23.9585 36.75 23.4392 36.5349 23.0563 36.152C22.6734 35.7691 22.4583 35.2498 22.4583 34.7083C22.4583 34.1669 22.6734 33.6475 23.0563 33.2647C23.4392 32.8818 23.9585 32.6667 24.5 32.6667C25.0415 32.6667 25.5608 32.8818 25.9437 33.2647C26.3266 33.6475 26.5417 34.1669 26.5417 34.7083ZM36.75 26.5417C36.75 27.0832 36.5349 27.6025 36.152 27.9853C35.7691 28.3682 35.2498 28.5833 34.7083 28.5833C34.1669 28.5833 33.6475 28.3682 33.2647 27.9853C32.8818 27.6025 32.6667 27.0832 32.6667 26.5417C32.6667 26.0002 32.8818 25.4809 33.2647 25.098C33.6475 24.7151 34.1669 24.5 34.7083 24.5C35.2498 24.5 35.7691 24.7151 36.152 25.098C36.5349 25.4809 36.75 26.0002 36.75 26.5417ZM36.75 34.7083C36.75 35.2498 36.5349 35.7691 36.152 36.152C35.7691 36.5349 35.2498 36.75 34.7083 36.75C34.1669 36.75 33.6475 36.5349 33.2647 36.152C32.8818 35.7691 32.6667 35.2498 32.6667 34.7083C32.6667 34.1669 32.8818 33.6475 33.2647 33.2647C33.6475 32.8818 34.1669 32.6667 34.7083 32.6667C35.2498 32.6667 35.7691 32.8818 36.152 33.2647C36.5349 33.6475 36.75 34.1669 36.75 34.7083Z" fill="#D98888"/>
</svg>
