<svg width="95" height="95" viewBox="0 0 95 95" fill="none" xmlns="http://www.w3.org/2000/svg">
<path d="M86.5316 34.908C88.2763 33.1806 89.6608 31.124 90.6048 28.8575C91.5489 26.591 92.0337 24.1597 92.0313 21.7045C92.0313 11.4134 83.6757 3.07266 73.3741 3.07117H73.3667C68.2011 3.07117 63.5209 5.17008 60.1439 8.56039L71.1535 19.5522L68.6731 22.0593C62.4759 17.8019 55.1316 15.5273 47.6128 15.537C40.0942 15.5269 32.7499 17.8009 26.5525 22.0578L23.894 19.3696L34.6498 8.49211C32.9378 6.74279 30.8936 5.3531 28.6372 4.40461C26.3809 3.45612 23.9577 2.96795 21.5101 2.96875C11.2694 2.96875 2.96875 11.3629 2.96875 21.7179C2.96875 26.9132 5.05578 31.6142 8.43273 35.009L19.3013 24.0172L21.4908 26.2304C17.9159 29.7287 15.077 33.9069 13.1413 38.519C11.2057 43.1311 10.2124 48.0839 10.2199 53.0857C10.2199 60.5387 12.3916 67.4797 16.1203 73.3222L12.9898 92.0312H15.7596C17.4904 92.0312 18.1302 89.9991 19.2553 87.4713C20.2557 85.2025 21.2463 82.9294 22.227 80.652C28.8934 86.8508 37.81 90.6404 47.6128 90.6404C57.4141 90.6404 66.3293 86.8478 72.9986 80.652C73.9791 82.9297 74.9702 85.2028 75.9718 87.4713C77.0984 89.9991 77.7352 92.0312 79.466 92.0312H82.2359L79.1098 73.3177C82.9691 67.2766 85.0157 60.2558 85.0072 53.0872C85.0145 48.0856 84.0211 43.1331 82.0855 38.5213C80.1498 33.9095 77.3111 29.7315 73.7363 26.2334L75.7788 24.1701L86.5316 34.908ZM76.6977 53.0872C76.6977 69.2179 63.6752 82.2967 47.6128 82.2967C31.5504 82.2967 18.5295 69.2179 18.5295 53.0872C18.5295 36.9595 31.5489 23.8821 47.6128 23.8821C63.6738 23.8821 76.6977 36.958 76.6977 53.0872Z" fill="white"/>
<path d="M50.3811 48.2986V32.2273H44.8429V48.2986C44.0026 48.7851 43.3047 49.4835 42.8187 50.324C42.3326 51.1645 42.0755 52.1178 42.073 53.0887C42.073 54.3222 42.4842 55.4533 43.1596 56.3751L30.5662 69.1081L32.288 70.8537L45.0195 57.9797C45.7944 58.3953 46.6701 58.6536 47.6127 58.6536C49.6582 58.6536 51.4231 57.5285 52.385 55.8719H61.4619V50.31H52.385C51.9049 49.4755 51.2138 48.7818 50.3811 48.2986Z" fill="white"/>
</svg>
