<svg width="71" height="71" viewBox="0 0 71 71" fill="none" xmlns="http://www.w3.org/2000/svg">
<path fill-rule="evenodd" clip-rule="evenodd" d="M35.5005 41.7775L51.1885 57.4656C52.021 58.298 53.15 58.7657 54.3273 58.7657C55.5046 58.7657 56.6336 58.298 57.4661 57.4656C58.2985 56.6331 58.7662 55.5041 58.7662 54.3268C58.7662 53.1495 58.2985 52.0205 57.4661 51.188L41.7721 35.5L57.4631 19.8119C57.8751 19.3997 58.2019 18.9104 58.4248 18.3719C58.6477 17.8335 58.7623 17.2564 58.7622 16.6736C58.7621 16.0908 58.6471 15.5137 58.424 14.9753C58.2008 14.437 57.8738 13.9478 57.4616 13.5358C57.0494 13.1238 56.5601 12.797 56.0217 12.5741C55.4832 12.3512 54.9061 12.2366 54.3233 12.2367C53.7405 12.2369 53.1634 12.3518 52.6251 12.5749C52.0867 12.7981 51.5975 13.1251 51.1855 13.5373L35.5005 29.2253L19.8124 13.5373C19.4033 13.1133 18.9138 12.775 18.3725 12.5422C17.8312 12.3094 17.249 12.1867 16.6598 12.1813C16.0706 12.1759 15.4862 12.2879 14.9407 12.5107C14.3953 12.7336 13.8997 13.0629 13.4828 13.4793C13.066 13.8958 12.7363 14.3911 12.5129 14.9363C12.2895 15.4816 12.177 16.0658 12.1818 16.655C12.1866 17.2443 12.3088 17.8266 12.5411 18.3681C12.7734 18.9096 13.1112 19.3994 13.5348 19.809L29.2288 35.5L13.5378 51.191C13.1142 51.6005 12.7763 52.0903 12.544 52.6318C12.3117 53.1733 12.1896 53.7557 12.1847 54.3449C12.1799 54.9341 12.2925 55.5184 12.5158 56.0636C12.7392 56.6088 13.0689 57.1041 13.4858 57.5206C13.9026 57.937 14.3982 58.2663 14.9437 58.4892C15.4892 58.712 16.0735 58.824 16.6627 58.8186C17.2519 58.8132 17.8342 58.6906 18.3754 58.4577C18.9167 58.2249 19.4062 57.8866 19.8154 57.4626L35.5005 41.7775Z" fill="#E83A3A"/>
</svg>
