<svg width="64" height="64" viewBox="0 0 64 64" fill="none" xmlns="http://www.w3.org/2000/svg">
<path d="M18.6668 10.6666C18.6668 9.25216 19.2287 7.8956 20.2289 6.89541C21.2291 5.89522 22.5857 5.33331 24.0002 5.33331H40.0002C41.4146 5.33331 42.7712 5.89522 43.7714 6.89541C44.7716 7.8956 45.3335 9.25216 45.3335 10.6666V16H56.0002C56.7074 16 57.3857 16.2809 57.8858 16.781C58.3859 17.2811 58.6668 17.9594 58.6668 18.6666C58.6668 19.3739 58.3859 20.0522 57.8858 20.5523C57.3857 21.0524 56.7074 21.3333 56.0002 21.3333H53.1495L50.8375 53.712C50.7417 55.0575 50.1396 56.3168 49.1525 57.2362C48.1653 58.1555 46.8665 58.6667 45.5175 58.6666H18.4802C17.1312 58.6667 15.8323 58.1555 14.8452 57.2362C13.858 56.3168 13.2559 55.0575 13.1602 53.712L10.8535 21.3333H8.00016C7.29292 21.3333 6.61464 21.0524 6.11454 20.5523C5.61445 20.0522 5.3335 19.3739 5.3335 18.6666C5.3335 17.9594 5.61445 17.2811 6.11454 16.781C6.61464 16.2809 7.29292 16 8.00016 16H18.6668V10.6666ZM24.0002 16H40.0002V10.6666H24.0002V16ZM16.1975 21.3333L18.4828 53.3333H45.5202L47.8055 21.3333H16.1975ZM26.6668 26.6666C27.3741 26.6666 28.0523 26.9476 28.5524 27.4477C29.0525 27.9478 29.3335 28.6261 29.3335 29.3333V45.3333C29.3335 46.0406 29.0525 46.7188 28.5524 47.2189C28.0523 47.719 27.3741 48 26.6668 48C25.9596 48 25.2813 47.719 24.7812 47.2189C24.2811 46.7188 24.0002 46.0406 24.0002 45.3333V29.3333C24.0002 28.6261 24.2811 27.9478 24.7812 27.4477C25.2813 26.9476 25.9596 26.6666 26.6668 26.6666ZM37.3335 26.6666C38.0407 26.6666 38.719 26.9476 39.2191 27.4477C39.7192 27.9478 40.0002 28.6261 40.0002 29.3333V45.3333C40.0002 46.0406 39.7192 46.7188 39.2191 47.2189C38.719 47.719 38.0407 48 37.3335 48C36.6262 48 35.948 47.719 35.4479 47.2189C34.9478 46.7188 34.6668 46.0406 34.6668 45.3333V29.3333C34.6668 28.6261 34.9478 27.9478 35.4479 27.4477C35.948 26.9476 36.6262 26.6666 37.3335 26.6666Z" fill="white"/>
</svg>
