<svg width="62" height="62" viewBox="0 0 62 62" fill="none" xmlns="http://www.w3.org/2000/svg">
<path d="M38.75 6.45831V10.3333C38.75 13.9861 38.75 15.8126 39.8867 16.9466C41.0182 18.0833 42.8446 18.0833 46.5 18.0833H50.375" stroke="white" stroke-width="3.875" stroke-linecap="round" stroke-linejoin="round"/>
<path d="M20.6668 28.4167H41.3335M20.6668 36.1667H41.3335M20.6668 43.9167H31.4393M10.3335 41.3334V20.6667C10.3335 13.361 10.3335 9.7056 12.6042 7.43744C14.8724 5.16669 18.5278 5.16669 25.8335 5.16669H36.6112C37.6652 5.16669 38.1947 5.16669 38.6701 5.36302C39.1428 5.55935 39.5174 5.93135 40.264 6.68052L50.153 16.5695C50.9022 17.3187 51.2742 17.6907 51.4705 18.166C51.6668 18.6388 51.6668 19.1684 51.6668 20.2224V41.3334C51.6668 48.639 51.6668 52.2944 49.3961 54.5626C47.1279 56.8334 43.4725 56.8334 36.1668 56.8334H25.8335C18.5278 56.8334 14.8724 56.8334 12.6042 54.5626C10.3335 52.2944 10.3335 48.639 10.3335 41.3334Z" stroke="white" stroke-width="3.875" stroke-linecap="round" stroke-linejoin="round"/>
</svg>
