<svg width="24" height="24" viewBox="0 0 24 24" fill="none" xmlns="http://www.w3.org/2000/svg">
<path d="M18 15V18H15V20H18V23H20V20H23V18H20V15H18ZM19.5 3.5L18 2L16.5 3.5L15 2L13.5 3.5L12 2L10.5 3.5L9 2L7.5 3.5L6 2L4.5 3.5L3 2V22L4.5 20.5L6 22L7.5 20.5L9 22L10.5 20.5L12 22L13.26 20.74C13.09 20.18 13 19.59 13 19C13 18.32 13.12 17.64 13.34 17H6V15H14.53C15.3225 14.1132 16.3607 13.482 17.5126 13.1864C18.6646 12.8909 19.8785 12.9443 21 13.34V2L19.5 3.5ZM18 13H6V11H18V13ZM18 9H6V7H18V9Z" fill="#FEFEFE"/>
</svg>
