<svg width="84" height="84" viewBox="0 0 84 84" fill="none" xmlns="http://www.w3.org/2000/svg">
<path d="M74.9583 56.625H56.0833C54.9782 56.625 53.9184 57.064 53.137 57.8454C52.3556 58.6268 51.9166 59.6866 51.9166 60.7917C51.9166 61.8968 52.3556 62.9566 53.137 63.738C53.9184 64.5194 54.9782 64.9584 56.0833 64.9584H66.0833C61.4872 69.7614 55.5599 73.0805 49.0631 74.4892C42.5663 75.8978 35.7966 75.3317 29.624 72.8636C23.4514 70.3954 18.1577 66.138 14.4232 60.6383C10.6887 55.1385 8.68398 48.6478 8.66658 42C8.66658 40.895 8.2276 39.8352 7.4462 39.0538C6.6648 38.2724 5.60499 37.8334 4.49992 37.8334C3.39485 37.8334 2.33504 38.2724 1.55364 39.0538C0.772239 39.8352 0.333252 40.895 0.333252 42C0.35528 50.1367 2.75917 58.0889 7.24827 64.8752C11.7374 71.6614 18.1152 76.9849 25.5947 80.1885C33.0742 83.3921 41.328 84.3356 49.3375 82.9027C57.347 81.4698 64.7617 77.7231 70.6666 72.125V79.5C70.6666 80.6051 71.1056 81.6649 71.887 82.4463C72.6684 83.2277 73.7282 83.6667 74.8332 83.6667C75.9383 83.6667 76.9981 83.2277 77.7795 82.4463C78.5609 81.6649 78.9999 80.6051 78.9999 79.5V60.75C78.9896 59.6735 78.5631 58.6428 77.8096 57.8738C77.0562 57.1048 76.0343 56.6573 74.9583 56.625ZM54.4999 42C54.4999 39.5278 53.7668 37.111 52.3933 35.0554C51.0198 32.9998 49.0675 31.3976 46.7835 30.4515C44.4994 29.5054 41.986 29.2579 39.5613 29.7402C37.1365 30.2225 34.9092 31.413 33.1611 33.1612C31.4129 34.9094 30.2224 37.1366 29.7401 39.5614C29.2578 41.9862 29.5053 44.4995 30.4514 46.7836C31.3975 49.0677 32.9997 51.0199 35.0553 52.3934C37.1109 53.7669 39.5276 54.5 41.9999 54.5C45.3151 54.5 48.4945 53.1831 50.8388 50.8389C53.183 48.4947 54.4999 45.3152 54.4999 42ZM37.8333 42C37.8333 41.1759 38.0776 40.3704 38.5355 39.6852C38.9933 39 39.644 38.4659 40.4054 38.1505C41.1668 37.8352 42.0045 37.7527 42.8128 37.9134C43.621 38.0742 44.3635 38.471 44.9462 39.0538C45.5289 39.6365 45.9258 40.3789 46.0865 41.1872C46.2473 41.9954 46.1648 42.8332 45.8494 43.5946C45.534 44.3559 45 45.0067 44.3148 45.4645C43.6296 45.9223 42.824 46.1667 41.9999 46.1667C40.8948 46.1667 39.835 45.7277 39.0536 44.9463C38.2722 44.1649 37.8333 43.1051 37.8333 42ZM41.9999 0.333374C31.3182 0.363841 21.0561 4.49551 13.3333 11.875V4.50004C13.3333 3.39497 12.8943 2.33516 12.1129 1.55376C11.3315 0.772361 10.2717 0.333374 9.16658 0.333374C8.06152 0.333374 7.00171 0.772361 6.22031 1.55376C5.43891 2.33516 4.99992 3.39497 4.99992 4.50004V23.25C4.99992 24.3551 5.43891 25.4149 6.22031 26.1963C7.00171 26.9777 8.06152 27.4167 9.16658 27.4167H27.9166C29.0217 27.4167 30.0815 26.9777 30.8629 26.1963C31.6443 25.4149 32.0833 24.3551 32.0833 23.25C32.0833 22.145 31.6443 21.0852 30.8629 20.3038C30.0815 19.5224 29.0217 19.0834 27.9166 19.0834H17.9166C22.5102 14.2828 28.4336 10.9646 34.9266 9.55466C41.4195 8.14469 48.1857 8.70731 54.3566 11.1703C60.5275 13.6333 65.8216 17.8843 69.5592 23.3776C73.2969 28.8709 75.3076 35.3558 75.3333 42C75.3333 43.1051 75.7722 44.1649 76.5536 44.9463C77.335 45.7277 78.3948 46.1667 79.4999 46.1667C80.605 46.1667 81.6648 45.7277 82.4462 44.9463C83.2276 44.1649 83.6666 43.1051 83.6666 42C83.6666 36.5283 82.5888 31.1101 80.4949 26.0549C78.401 20.9997 75.3318 16.4064 71.4627 12.5373C67.5936 8.66815 63.0003 5.59901 57.9451 3.50506C52.8898 1.41111 47.4717 0.333374 41.9999 0.333374Z" fill="white"/>
</svg>
