<svg width="73" height="73" viewBox="0 0 73 73" fill="none" xmlns="http://www.w3.org/2000/svg">
<path d="M18.6147 44.2854L28.7147 54.3854M18.6147 44.2854C18.6147 44.2854 24.5779 29.3795 33.0661 19.0354M18.6147 44.2854C-3.34863 38.7935 16.3842 19.0354 33.0661 19.0354M28.7147 54.3854C28.7147 54.3854 43.6206 48.4222 53.9647 39.934M28.7147 54.3854C34.2065 76.3445 53.9647 56.6158 53.9647 39.934M33.0661 19.0354C41.6511 8.57346 55.8037 3.88538 69.1147 3.88538C69.1147 17.1963 64.4266 31.3448 53.9647 39.934M46.8105 25.7982L49.7858 22.8229M9.22587 55.7573C5.21954 59.1282 3.8855 69.1356 3.8855 69.1356C3.8855 69.1356 13.8677 67.7973 17.2301 63.7826C19.1239 61.5353 19.0986 58.0845 16.9902 55.9972C15.9479 55.0173 14.5834 54.4522 13.1535 54.408C11.7235 54.3638 10.3268 54.8437 9.22587 55.7573Z" stroke="white" stroke-width="6.3125" stroke-linecap="round" stroke-linejoin="round"/>
</svg>
